<svg xmlns="http://www.w3.org/2000/svg" width="248" height="57"><path fill="#fff" d="M13.975 28.306l1.645-7.895h.389l1.545 7.739.92 4.19h-5.515zm8.077 18.438c.1.39.274.643.533.758.26.103.583.158.97.158h7.3c.393 0 .605-.13.656-.376.048-.253.037-.471-.028-.649l-9.526-33.322c-.229-.792-.478-1.405-.751-1.849-.274-.45-.58-.785-.922-1.002a2.663 2.663 0 00-1.156-.404 12.583 12.583 0 00-1.522-.074h-3.921c-1.099 0-1.952.204-2.565.613-.612.416-1.13 1.338-1.546 2.764L.044 46.635c-.065.287-.058.533.023.732.079.197.283.293.604.293H7.78c.552 0 .915-.096 1.091-.293.178-.2.332-.499.461-.895l1.593-6.183h9.535zm41.573-.217c0 .436-.06.722-.17.886-.112.165-.444.247-.99.247h-6.872c-.74 0-1.108-.388-1.108-1.133V18.74H43.743v27.788c0 .436-.054.722-.167.886-.116.165-.447.247-.989.247h-6.875c-.742 0-1.114-.388-1.114-1.133V13.58c0-1.182.195-2.068.581-2.662.39-.594 1.242-.887 2.566-.887H60.48c1.323 0 2.18.293 2.566.887.385.594.58 1.48.58 2.662zM93.15 18.581h-8.272v27.946c0 .436-.057.722-.165.886-.117.164-.448.247-.994.247h-6.868c-.744 0-1.112-.389-1.112-1.133V18.581h-8.081c-.675 0-1.017-.416-1.017-1.235v-6.018c0-.615.076-.984.219-1.114.14-.115.41-.183.798-.183H93.15c.389 0 .654.068.798.183.143.13.22.499.22 1.114v6.018c0 .82-.336 1.235-1.018 1.235m27.27 29.079h-14.95c-1.93 0-3.503-.315-4.715-.915-1.209-.608-2.16-1.406-2.85-2.395a8.803 8.803 0 01-1.429-3.303 17.271 17.271 0 01-.389-3.603V20.247c0-1.297.161-2.551.484-3.794.322-1.236.847-2.328 1.57-3.276.727-.949 1.69-1.713 2.88-2.286 1.194-.574 2.645-.86 4.354-.86h14.273c.386 0 .638.068.747.183.117.13.171.499.171 1.114v6.059c0 .478-.065.785-.195.956-.13.157-.371.238-.723.238h-11.512c-.649 0-1.164.103-1.55.294-.39.191-.678.438-.873.723-.195.294-.32.608-.39.97a6.5 6.5 0 00-.094 1.07v2.266h12.965c.39 0 .638.07.75.212.113.15.171.518.171 1.126v5.59c0 .825-.307 1.234-.92 1.234H105.23V36.1c0 .682.074 1.221.22 1.61.144.396.346.69.604.887.257.205.565.327.92.382.354.048.74.075 1.163.075h12.283c.388 0 .639.069.75.191.117.13.173.492.173 1.106v6.073c0 .825-.309 1.236-.923 1.236m26.481-19.995c.836.32 1.53.688 2.078 1.098.55.41 1 .882 1.358 1.399a6.77 6.77 0 01.844 1.768c.207.675.412 1.4.604 2.184l2.998 12.467c.065.185.076.41.024.668-.047.28-.284.41-.7.41h-7.257c-.16 0-.338-.033-.529-.109-.195-.075-.341-.286-.436-.648l-3.047-11.28c-.225-.868-.508-1.57-.85-2.123-.338-.56-.74-.989-1.208-1.303a4.408 4.408 0 00-1.669-.607c-.644-.116-1.388-.165-2.224-.165h-2.18l.05 15.376c0 .395-.065.635-.194.73-.13.082-.357.13-.679.13h-7.442c-.293 0-.508-.048-.658-.13-.143-.095-.215-.335-.215-.73V10.891c0-.395.072-.635.215-.723.15-.09.365-.137.658-.137h7.49c.324 0 .549.048.68.137.129.088.163.328.094.723V24.22h2.324c.481 0 .996-.029 1.525-.103a3.85 3.85 0 001.521-.56c.485-.313.928-.756 1.335-1.35.4-.588.734-1.406.99-2.444l2.228-9.083c.061-.362.202-.567.41-.648.207-.069.395-.11.556-.11h7.158c.42 0 .655.144.703.403.044.273.037.498-.024.676l-2.323 9.622c-.325 1.502-.847 2.839-1.57 4.006-.727 1.167-1.607 2.08-2.638 2.77zm23.892.641l1.648-7.895h.386l1.55 7.739.917 4.19h-5.511zm8.08 18.438c.099.39.276.643.535.758.256.103.584.158.966.158h7.309c.382 0 .6-.13.649-.376.046-.253.04-.471-.025-.649l-9.53-33.322c-.225-.792-.474-1.405-.754-1.849-.27-.45-.577-.785-.911-1.002a2.731 2.731 0 00-1.163-.404 12.562 12.562 0 00-1.525-.074h-3.921c-1.092 0-1.948.204-2.56.613-.613.416-1.128 1.338-1.551 2.764l-9.524 33.274c-.068.287-.057.533.023.732.08.197.278.293.601.293h7.11c.55 0 .916-.096 1.093-.293.174-.2.327-.499.458-.895l1.596-6.183h9.527z"/><path fill="#c10010" d="M219.692.487c-14.477 0-28.312 11.787-28.154 27.525.174 17.455 16.554 27.567 32.622 25.75.166-.022.321-.063.48-.089v.018c-.154.018-.316.049-.48.071a38.328 38.328 0 01-25.657-6.255c5.187 5.872 12.748 9.587 21.19 9.587 15.636 0 28.307-12.67 28.307-28.302C248 13.154 235.33.487 219.692.487"/><path fill="#fff" d="M230.438 7.6l-.083 3.98c-.013.525-.153.85-.415.979-.154.07-.266.026-.34-.116a1.108 1.108 0 01-.098-.542l.093-3.866c-.01-.248.127-.44.42-.586.214-.102.35-.097.416.031zm3.496 2.213a2.13 2.13 0 01-.53.4c-.183.092-.314.066-.383-.07a.603.603 0 01-.053-.295c.011-.63.017-1.173.033-1.644.011-.47.02-.857.02-1.164l.045-2.021-1.738.858-.013.408c-.498-.196-1.06-.146-1.682.16-.842.418-1.489 1.102-1.94 2.061a6.499 6.499 0 00-.607 2.636l-.017.63c-.014.836.08 1.458.276 1.858.379.768 1.233.822 2.566.168.58-.29 1.01-.702 1.288-1.257.211.301.52.35.943.15.631-.319 1.25-.79 1.841-1.399zm-7.158 3.509a2.4 2.4 0 01-.527.4c-.188.093-.32.072-.386-.07a.608.608 0 01-.05-.304l.107-4.028-2.712.016h-.02l-.126 5.964a.711.711 0 01-.428.657c-.176.084-.294.071-.351-.049a1.118 1.118 0 01-.047-.177l.066-3.03-2.71-.022-.085 4.371c-.013.298-.157.515-.447.663-.163.074-.274.062-.335-.064a.763.763 0 01-.036-.172l.097-4.816-2.574-.032-.079 4.044-.013.004-.009.849c-.006.56.08 1.03.271 1.421.386.787 1.022.96 1.898.529.915-.44 1.554-1.062 1.93-1.862.429.405.977.445 1.626.12.873-.422 1.467-.973 1.774-1.652.179.146.385.234.632.262.24.026.482-.018.735-.147.64-.306 1.26-.778 1.85-1.4zm-14.337 3.11l-.092 3.986c-.008.515-.144.835-.41.973-.155.076-.262.035-.339-.12a1.004 1.004 0 01-.096-.538l.096-3.874c-.02-.244.121-.436.41-.581.218-.103.353-.081.415.038zm3.49 2.21c-.176.186-.355.31-.525.399-.19.093-.314.067-.388-.076a.546.546 0 01-.047-.288c.005-.618.02-1.174.025-1.645.01-.462.022-.853.026-1.164l.045-2.016-1.737.852-.013.41c-.503-.192-1.062-.135-1.678.164-.846.408-1.492 1.101-1.95 2.057a6.823 6.823 0 00-.608 2.634l-.01.63c-.015.84.075 1.458.269 1.858.376.769 1.238.827 2.572.169a2.74 2.74 0 001.287-1.253c.206.297.518.346.94.142.641-.31 1.252-.782 1.85-1.394zm13.993 24.728c0 .387-.136.582-.398.582h-5.86c-.277 0-.41-.195-.41-.582v-1.484c0-.271.02-.449.079-.507.054-.057.167-.085.331-.085h5.86c.167 0 .276.028.322.085.051.058.076.236.076.507zm-2.684-6.642c-.152.306-.377.458-.664.458-.284 0-.513-.138-.666-.4-.144-.272-.222-.72-.222-1.356 0-1.137.295-1.706.888-1.706.598 0 .892.587.892 1.76 0 .529-.08.95-.228 1.244m2.244-4.635c-.636-.812-1.611-1.221-2.908-1.221-1.269 0-2.232.409-2.879 1.235-.649.836-.971 1.942-.971 3.355 0 .693.069 1.328.205 1.897a3.63 3.63 0 00.673 1.44 3.08 3.08 0 001.2.915c.493.217 1.081.324 1.772.324 1.321 0 2.302-.404 2.934-1.213.624-.809.941-1.928.941-3.363 0-1.427-.325-2.546-.967-3.369"/><path fill="#fff" d="M243.486 13.452L215.605 27.78a1.402 1.402 0 00-.064.062c-.057.093-.082.262-.082.494v10.626h-.176l-1.593-3.576-2.915-6.326a4.083 4.083 0 00-.422-.747 1.575 1.575 0 00-.435-.414 1.519 1.519 0 00-.536-.164 8.698 8.698 0 00-.721-.022h-1.298c-.693 0-1.168.156-1.433.48-.255.32-.38.955-.38 1.888v18.07c0 .422.189.635.567.635h3.539c.282 0 .45-.045.511-.134.057-.097.087-.262.087-.502V37.523h.17l1.673 3.8 2.837 6.103c.15.324.289.574.427.76.128.173.272.31.428.4.16.093.34.15.537.168.198.019.436.032.718.032h1.298c.746 0 1.23-.23 1.466-.68.237-.444.349-1.022.349-1.705V30.73l25.546-13.13a28.125 28.125 0 00-2.217-4.149"/><path fill="#fff" d="M243.42 44.232c-.01-.014-.018-.014-.023-.018-.089-.058-.265-.08-.524-.08h-2.41V28.709c0-.546-.095-.982-.275-1.302a1.608 1.608 0 00-.767-.703c-.325-.142-.695-.208-1.124-.208a4.42 4.42 0 00-1.318.2l-5.822 1.524c-.304.079-.482.213-.527.36a2.133 2.133 0 00-.058.52v2.993c0 .299.05.49.145.57.096.075.311.084.631.017l3.223-.587v12.041h-1.987c-.263 0-.434.022-.517.08-.093.049-.132.263-.132.636v3.247c0 .275.048.471.148.56.094.085.262.13.5.13h7.145a28.49 28.49 0 003.691-4.555m-50.755-24.059c.144-.466.3-.923.464-1.377l7.928-3.923c1.156-.569 1.944-.765 2.368-.582.371-.608 1.053-1.155 2.047-1.653.606-.298 1.188-.48 1.746-.55.712-.081 1.163.07 1.355.466.073.151.107.319.098.533l-.029 1.04c-.012.737-.25 1.497-.717 2.264a6.326 6.326 0 01-1.705 1.881c1.031-.213 1.727.04 2.095.787.135.265.195.586.189.955l-.024.955c-.023 1.194-.587 2.346-1.678 3.457-.84.875-1.886 1.612-3.117 2.212l-2.931 1.436.254-11.327a.282.282 0 00-.033-.132c-.053-.107-.175-.174-.357-.2a.773.773 0 00-.491.057zm11.125-.968c1.377-1.334 2.073-2.35 2.086-3.062l.05-1.47a.774.774 0 00-.08-.364c-.174-.355-.516-.41-1.02-.16-.616.302-.932.818-.938 1.524zm-.122 5.638a.431.431 0 00.028.205c.053.093.14.115.285.044.175-.085.376-.267.602-.538.755-.924 1.14-1.804 1.166-2.643l.019-.778c.005-.205-.028-.4-.117-.568-.249-.507-.87-.72-1.876-.627z"/></svg>