<svg xmlns="http://www.w3.org/2000/svg" width="156" height="161"><path fill="#ff89ab" d="M86.414 31.076c-5.448-1.839-8.887-8.35-7.82-14.493 1.1-6.346 6.804-11.045 13.337-10.988 6.653.058 12.088 4.939 13.125 11.787.842 5.565-2.84 12.033-7.98 13.696v-6.703c0-.887.03-1.776-.012-2.662-.084-1.717-1.058-2.652-2.8-2.68a192.77 192.77 0 00-4.854-.006c-1.975.017-2.979 1.008-2.991 2.992-.02 2.97-.005 5.943-.005 9.057zm9.388 129.706c.401-.092.8-.235 1.205-.268 11.953-.956 22.746-5.036 32.46-12.03 27.664-19.919 34.77-58.636 15.95-87.055-1.575-2.376-3.341-4.624-4.827-6.668l5.007-5.185c.968 1.056 1.944 2.215 3.02 3.272 1.226 1.207 2.65 1.218 3.906.072a37.59 37.59 0 002.658-2.66c1.06-1.18 1.115-2.552.025-3.662a755.013 755.013 0 00-10.757-10.744c-1.18-1.156-2.557-1.099-3.786.017-.81.737-1.57 1.534-2.332 2.322-1.454 1.505-1.474 2.864-.005 4.36 1.016 1.034 2.11 1.992 3.083 2.904l-5 5.02c-9.122-8.759-20.013-14.443-32.636-16.999 9.539-8.925 7.787-20.964 1.482-27.44-6.961-7.15-18.144-7.73-25.67-1.23-3.538 3.055-5.728 6.913-6.332 11.55-.88 6.76 1.412 12.405 6.523 17.054-.633.166-1.093.257-1.535.405-4.54 1.521-9.077 3.05-13.613 4.58-.148.05-.29.119-.43.19-1.659.84-2.264 2.273-1.57 3.714.682 1.42 2.198 1.875 3.872 1.078 10.203-4.861 20.946-6.519 32.122-5.213 15.643 1.827 28.58 8.9 38.515 21.041 11.79 14.41 15.91 30.997 12.238 49.25-5.33 26.484-28.537 46.453-56.71 46.991-9.102.174-17.793-1.756-26.049-5.617-1.825-.854-3.28-.447-4 1.033-.718 1.477-.151 3.019 1.744 3.725 4.388 1.637 8.79 3.289 13.292 4.55 3.136.878 6.45 1.118 9.685 1.643zM.81 117.204c.744-1.368 1.841-1.917 3.447-1.913 16.555.046 33.112.028 49.668.036 1.874.001 3.006 1.016 3.013 2.64.008 1.628-1.108 2.664-2.994 2.665-16.66.011-33.321-.005-49.982.027-1.51.003-2.433-.706-3.153-1.887z"/><path fill="#ff89ab" d="M90.213 43.035c18.156.36 31.843 6.718 42.525 19.225 6.68 7.822 10.583 16.958 12.014 27.201 3.823 27.38-14.467 53.73-42.098 59.461-13.608 2.822-26.404.509-38.358-6.529-.61-.359-1.222-.852-1.599-1.435-.626-.968-.476-2.019.275-2.904.74-.87 1.698-1.273 2.792-.772 1.13.516 2.203 1.154 3.298 1.745 7.583 4.095 15.712 6.074 24.295 5.748a48.32 48.32 0 0045.446-37.783c5.265-23.633-7.894-47.236-30.036-55.482-14.214-5.293-28.056-4.005-41.282 3.486-.316.18-.619.384-.939.558-1.577.857-3.01.556-3.81-.797-.787-1.329-.375-2.827 1.112-3.742 5.324-3.276 11.033-5.653 17.18-6.795 3.574-.664 7.22-.94 9.185-1.185z"/><path fill="#ff89ab" d="M91.84 88.729c.521 0 1.151-.191 1.544.033 1.673.954 2.59-.029 3.652-1.11 4.318-4.392 8.694-8.726 13.05-13.08 1.682-1.68 3.053-1.891 4.31-.667 1.301 1.266 1.097 2.688-.652 4.438-4.611 4.616-9.212 9.242-13.855 13.824-.678.669-.82 1.188-.525 2.13.934 2.985.209 5.709-1.97 7.892-2.175 2.181-4.905 2.951-7.88 1.997-1.068-.343-1.611-.073-2.262.631a57.142 57.142 0 01-2.876 2.88c-1.316 1.237-2.81 1.303-3.9.23-1.078-1.06-.963-2.739.274-4.014.146-.15.288-.303.44-.446 1.876-1.772 3.432-3.235 2.867-6.556-.807-4.74 3.007-8.237 7.783-8.182zm-58.726 15.899c6.786-.002 13.57-.002 20.356-.002.208 0 .418 0 .626.01 1.77.078 2.866 1.093 2.857 2.646-.01 1.528-1.156 2.655-2.87 2.67-3.914.035-7.83.007-11.744.006-10.074-.003-20.148-.002-30.221-.011-.466-.001-.95-.018-1.39-.148-1.272-.374-1.983-1.565-1.809-2.917.176-1.371 1.16-2.222 2.742-2.23 5.741-.026 11.483-.018 17.225-.022 1.409-.001 2.818 0 4.228-.002zm2.331 21.379c6.156 0 12.312-.017 18.468.009 2.42.01 3.89 2.15 2.626 3.937-.484.684-1.597 1.302-2.428 1.308-12.363.082-24.726.065-37.09.046-1.763-.003-2.81-1.079-2.781-2.686.027-1.56 1.12-2.597 2.895-2.604 6.104-.024 12.206-.01 18.31-.01zm1.525-32.063c5.643 0 11.285-.012 16.928.007 2.058.007 3.205 1.144 3.028 2.906-.149 1.493-1.255 2.38-3.136 2.39-4.65.03-9.3.022-13.95.024-6.374.002-12.748.004-19.123-.001-2.51-.003-3.864-.947-3.868-2.67-.005-1.772 1.318-2.68 3.82-2.674 5.434.01 10.867.003 16.3.003zm3.973 48.081c-4.229 0-8.457.006-12.686-.003-2.163-.003-3.327-.938-3.338-2.642-.009-1.685 1.229-2.695 3.315-2.696 8.143-.002 16.288-.005 24.432-.005.574 0 1.152-.024 1.721.033 1.534.153 2.561 1.238 2.555 2.647-.008 1.537-1.022 2.604-2.687 2.636-2.766.054-5.533.016-8.3.016h-5.012zm1.513-58.791c3.756 0 7.513-.011 11.268.006 2.08.009 3.185.921 3.213 2.583.027 1.674-1.099 2.704-3.12 2.712-7.615.026-15.232.019-22.848.023-.156 0-.313-.004-.47-.014-1.767-.12-2.924-1.152-2.944-2.622-.02-1.556 1.174-2.682 3.008-2.698 3.964-.033 7.929-.01 11.893-.01zm3.724-5.428c-2.5-.001-5 .02-7.5-.008-1.947-.022-3.033-.966-3.062-2.577-.031-1.645 1.134-2.704 3.118-2.716 5.053-.031 10.106-.04 15.159-.019 1.93.008 3.102 1.134 3.054 2.797-.046 1.591-1.165 2.512-3.111 2.523-2.553.012-5.105.003-7.657 0zm4.162-10.696c-1.303 0-2.608.037-3.91-.008-1.722-.058-2.818-1.158-2.785-2.715.03-1.47 1.131-2.564 2.769-2.594a193.87 193.87 0 017.664.01c1.77.038 2.86 1.113 2.858 2.653-.003 1.588-1.039 2.577-2.842 2.637-1.25.042-2.503.008-3.754.008zm2.608-10.7c-.417 0-.834.015-1.249-.002-1.618-.067-2.665-1.099-2.682-2.631-.016-1.524 1.007-2.582 2.644-2.673.83-.047 1.666-.041 2.497-.003 1.737.08 2.805 1.145 2.776 2.72-.03 1.565-1.108 2.528-2.894 2.579-.364.01-.729.002-1.093.002zm56.32 5.415c-.011-1.506.998-2.567 2.476-2.605 1.447-.036 2.722 1.183 2.73 2.61.006 1.346-1.226 2.629-2.56 2.663-1.452.038-2.635-1.156-2.646-2.668zm-40.106-.211c.08-1.466 1.176-2.45 2.667-2.393 1.39.053 2.513 1.262 2.474 2.665-.04 1.454-1.365 2.705-2.746 2.596-1.514-.12-2.48-1.277-2.395-2.868zm22.605-7.725c1.442.01 2.607 1.136 2.629 2.54.02 1.365-1.192 2.636-2.55 2.672-1.472.038-2.653-1.167-2.643-2.697.01-1.524 1.031-2.526 2.564-2.515zm37.581 42.734c-.007-1.616 1.01-2.626 2.626-2.606a2.56 2.56 0 012.53 2.61 2.624 2.624 0 01-2.605 2.585c-1.425.01-2.543-1.125-2.55-2.59zm-60.19 34.793c-.026-1.583.888-2.563 2.423-2.598 1.625-.037 2.722.972 2.723 2.505.001 1.436-1.105 2.547-2.556 2.568-1.5.022-2.564-.994-2.59-2.475zm40.13-.052c-.022-1.559.94-2.569 2.457-2.583 1.568-.015 2.762 1.114 2.73 2.581-.029 1.38-1.24 2.562-2.63 2.57-1.435.006-2.537-1.1-2.557-2.568zm19.76-54.681c-.068 1.444-1.263 2.547-2.663 2.458-1.508-.097-2.527-1.306-2.418-2.865.104-1.461 1.216-2.4 2.753-2.321 1.461.073 2.403 1.176 2.329 2.728zm.042 39.972c-.003 1.44-1.134 2.62-2.534 2.643-1.47.025-2.63-1.188-2.602-2.723.026-1.512 1.067-2.511 2.595-2.49 1.496.019 2.546 1.08 2.541 2.57zm-39.871 20.081c-.008-1.552.95-2.553 2.478-2.59 1.47-.033 2.615 1.024 2.663 2.458.05 1.451-1.166 2.725-2.61 2.735-1.415.01-2.523-1.13-2.53-2.603z"/></svg>