<svg xmlns="http://www.w3.org/2000/svg" width="117" height="70"><path fill="#231f20" d="M113.091 35.499l.914-32.875L0 15.168l6.825 45.035z"/><path fill="#cf0a2c" d="M115.59 33.432L116.6.317 2.74 10.074 9.42 55.78z"/><path fill="#fff" d="M21.051 41.459c-5.767.048-9.131-4.855-9.516-9.71-.384-5.43 2.355-11.63 9.276-12.4.385-.047.77-.047 1.154-.047 1.25 0 2.403.192 3.508.576l.192.049.337 5.527-.625-.529c-.913-.913-2.21-1.394-3.557-1.394-.24 0-.432 0-.672.048-3.317.433-5.191 4.134-4.95 7.402.24 3.124 2.114 6.152 5.767 6.104h.384c1.394-.096 2.884-1.057 3.941-2.5l.529-.72.432 5.527-.192.096c-1.153.721-2.691 1.586-4.518 1.874-.48.049-.96.097-1.49.097zm11.728-23.455l4.662-.625 8.267 19.946-4.903.721-1.778-4.181-5.575.817-.914 4.614-4.71.72 4.95-22.012zm1.345 13.073l3.701-.48-2.45-6.441zm16.582-11.775c1.73 0 2.643.817 2.836 2.45.048.914-.096 3.173-3.365 3.51h-.144l-.577-5.864h.193c.384-.048.72-.096 1.057-.096zm4.758 16.533l9.42-1.394.721-11.15 4.134 10.381 3.268-.48 2.5-11.391 2.354 10.622 4.566-.673-4.71-19.658-4.037.529-2.692 12.689-4.902-11.68-3.99.529-1.73 20.523-5.238-7.402.144-.048c1.73-.865 3.076-3.653 2.836-6.008-.337-3.508-2.932-5.72-6.585-5.671-.432 0-6.777.913-6.777.913l1.73 20.763 4.518-.673-.672-7.353.96-.289 4.182 6.921zm26.723-24.319l9.805-1.25.24 3.845-5.143.72.289 3.942 5.143-.769.288 3.845-5.143.769.385 4.47 5.815-.913.24 3.845-10.285 1.586zm17.207 6.921l-5.576-8.411 4.903-.625 2.931 4.998 2.211-5.671 4.903-.673-4.518 10.045 6.488 9.42-4.806.77-3.845-6.008-2.836 7.017-4.998.72z"/><path fill="#fff" d="M108.91 17.139c0-.961.769-1.73 1.73-1.73s1.73.769 1.73 1.73-.769 1.73-1.73 1.73-1.73-.769-1.73-1.73zm.288 0c0 .817.673 1.442 1.442 1.442.77 0 1.442-.625 1.442-1.442s-.673-1.442-1.442-1.442c-.769.048-1.442.673-1.442 1.442zm2.211 1.01h-.336l-.48-.866h-.337v.865h-.289v-1.922h.817c.337 0 .673.096.673.528 0 .385-.24.53-.528.53zm-1.153-1.202h.288c.24 0 .625.048.625-.24 0-.241-.192-.241-.433-.241h-.48z"/><path fill="#e31837" d="M11.15 66.307c.24-.096.433-.096.577 0 .096.048.144.192.144.433 0 .24-.096.384-.192.528a.685.685 0 01-.577.289zm.193 2.595c.48-.096 1.153-.288 1.634-.913.24-.288.529-.817.577-1.586 0-.72-.24-1.153-.481-1.346-.48-.384-1.202-.24-1.634-.144l-.192.048.048-1.01 1.826-.432.048-1.538-3.508.817-.289 6.585zm5.671-3.508c.144-.673.289-1.298.385-1.923.048-.336.096-.625.144-.961.048.913.096 1.826.192 2.692zm2.692 1.538l-1.058-6.296-2.066.48-1.779 6.921 1.73-.384.193-.865 1.153-.24.096.816zm6.824-8.075l-.288 6.585-1.682.384.192-4.95-.769.192-.096 2.163c-.048.961-.192 1.97-.769 2.595-.384.481-.865.625-1.201.721-.24.048-.433.096-.673.096l.048-1.73c.096.048.192.096.336.048.096 0 .24-.096.385-.24.192-.24.24-.625.24-.913l.144-3.99zm3.557 2.933c.24-.097.48-.049.577.047.096.048.144.24.144.433 0 .24-.048.432-.192.576-.144.193-.433.289-.577.289zm.24 2.739c.433-.096 1.154-.337 1.635-.914.192-.288.528-.817.576-1.682.048-.432 0-.961-.384-1.297-.433-.433-1.154-.433-1.875-.24h-.096l.096-2.404-1.682.385-.288 6.584zm4.086-7.209a3.41 3.41 0 011.49-.77c.865-.192 1.346.096 1.49.24.24.193.48.577.432 1.25 0 .48-.192.865-.384 1.106-.289.384-.673.528-.721.576.336-.048.673.048.817.193.144.144.336.384.336.96a2.56 2.56 0 01-.625 1.635c-.528.625-1.201.817-1.586.913-.48.096-.96.144-1.49 0l.097-1.97c.144.144.336.288.48.384.192.096.385.096.673.048a1.09 1.09 0 00.529-.288.546.546 0 00.144-.385c0-.192-.096-.336-.192-.384-.144-.048-.337-.048-.625.048l-.288.048.048-1.49.288-.048c.24-.048.48-.144.625-.288.096-.097.192-.193.192-.385 0-.144-.048-.288-.192-.336-.096-.048-.289-.048-.433-.048-.24.048-.432.144-.673.336l-.528.529zm7.113 2.354c.144-.673.288-1.297.385-1.922.048-.337.096-.625.144-.961.048.913.096 1.826.192 2.691zm2.692 1.538l-1.058-6.296-2.066.48-1.779 6.922 1.73-.385.193-.865 1.153-.24.096.817zm6.344-1.442v-4.181c-.048.433-.144.865-.24 1.298l-.625 3.076-1.394.336-.337-3.076c-.048-.336-.048-.673-.048-1.01-.048.481-.048.962-.096 1.49l-.24 2.788-1.826.433 1.009-6.777 2.115-.48c.144 1.153.288 2.21.336 3.412.192-1.202.48-2.451.721-3.653l2.067-.48.336 6.44zm9.324-7.16l.673-.145-.144 3.412-1.154.289c.144-.144.24-.289.337-.529.144-.384.144-.769.192-1.346zm-1.49-1.202l-.144 3.268c0 .528-.048 1.153-.433 1.586-.096.144-.24.24-.432.336l-.096 2.884 1.442-.336.048-1.298 2.307-.529-.048 1.298 1.441-.336.097-2.884-.53.144.193-4.999zm10.958-2.548l-.288 6.585-1.682.384.192-4.95-.769.192-.096 2.163c-.048.961-.192 1.97-.77 2.595-.384.481-.864.625-1.2.721-.241.048-.433.096-.674.096l.049-1.73c.096.048.192.096.336.048.096 0 .24-.096.384-.24.193-.24.24-.625.24-.913l.145-3.99zm4.518 2.067h-.096c-.24.048-.432 0-.529-.096-.192-.144-.192-.385-.192-.577 0-.192 0-.384.192-.625a.747.747 0 01.625-.336zm-2.932 4.181l1.827-.432 1.057-2.884c-.096.385-.096.625-.096.865l-.096 1.779 1.682-.385.289-6.585-1.73.385c-.866.192-1.539.529-2.02 1.153a3.554 3.554 0 00-.624 1.827c0 .384.048.769.288 1.057.144.096.337.289.721.289zm11.776-7.786l-.192 5.047-1.683.384.289-6.584 2.98-.673-.048 1.538zm4.566-2.643l.288.961c.144.433.192.721.24 1.394.097-.577.193-1.01.337-1.538l.288-1.106 1.73-.384-2.45 7.113-1.683.385.817-2.403-1.346-4.038zm6.152 2.451c.24-.096.432-.096.576 0 .097.048.145.192.145.433 0 .24-.096.384-.193.528a.685.685 0 01-.576.289zm.192 2.595c.48-.096 1.153-.288 1.634-.913.24-.288.529-.817.577-1.586 0-.72-.24-1.153-.48-1.346-.481-.384-1.202-.24-1.635-.144l-.192.048.048-1.01 1.826-.432.048-1.538-3.508.817-.289 6.585zm14.13-8.266c0 .144-.096.72-.336.769-.288.048-.288-.481-.288-.673 0-.193.096-.77.336-.817.288-.048.288.48.288.72zm.721 2.931l.048-1.009-2.355.529-.048 1.01zm.337-3.172c.048-.913-.385-1.49-1.298-1.297-.865.192-1.346 1.057-1.394 1.922-.048.865.385 1.442 1.25 1.25.865-.24 1.394-1.01 1.442-1.875zm-3.365 5.768l.289-6.585-1.586.385-.048 1.538c-.048.817.048 1.634.096 2.403-.144-.529-.24-1.058-.433-1.538l-.769-2.115-1.586.385-.288 6.584 1.586-.384.048-1.683c.048-.72 0-1.441 0-2.114.288 1.201.72 2.355 1.105 3.508zm6.537-1.49l.192-5.047-.673.144.048-1.538 2.403-.576-.288 6.584z"/></svg>