<svg xmlns="http://www.w3.org/2000/svg" width="162" height="157"><path fill="#ff89ab" d="M47.963 92.252c-.954 0-1.859.519-2.549 1.462-.376.513-.713 1.048-1.069 1.613-.152.241-.303.481-.457.72L33.88 111.505l-.743-.699c-4.964-4.67-7.126-16.625.631-25.484 4.001-4.57 9.947-7.191 16.316-7.191 4.862 0 9.591 1.585 13.314 4.462 9.042 6.987 10.735 19.456 3.855 28.386-3.996 5.187-10.705 8.409-17.509 8.409-4.045 0-7.807-1.117-10.88-3.229l-.68-.468 11.102-17.186.37-.561c.285-.429.57-.857.818-1.304.858-1.551.49-3.094-.939-3.931-.515-.303-1.045-.457-1.572-.457zM93.627 81.59l1.72.644c6.576 2.461 11.894 11.32 11.382 18.957-.562 8.362-6.46 16.424-13.149 17.973l-1.696.392.733-1.579c5.348-11.512 5.881-22.849 1.632-34.659zm-58.73 39.162l.695.385c4.738 2.62 9.572 3.948 14.367 3.948 3.333-.001 6.732-.642 10.101-1.908 6.205-2.33 10.923-6.38 14.022-12.037 6.368-11.616 3.17-25.686-7.605-33.455-4.759-3.43-10.45-5.245-16.463-5.245-7.19 0-13.917 2.599-18.945 7.32-8.952 8.403-12.422 24.172-1.225 36.842l.428.483-7.22 11.176-.74-.643a37.235 37.235 0 01-9.717-13.171c-8.384-19.003-.91-40.182 17.77-50.359 3-1.636 3.24-2.191 2.33-5.402l-1.157-4.088A5295.442 5295.442 0 0026.6 37.209c-.66-2.303-1.64-2.775-2.91-2.775-.49 0-1.072.083-1.73.247-2.604.648-5.205 1.308-7.907 1.992l-4.428 1.121-3.086-11.352 4.335-1.166c2.682-.72 5.32-1.428 7.952-2.147 1.496-.409 2.37-.913 2.752-1.586.375-.661.362-1.645-.045-3.093-.52-1.866-1.048-3.731-1.596-5.676l-.99-3.513 11.78-3.008.911 3.276c.515 1.849 1.022 3.667 1.514 5.49.79 2.939 1.65 3.477 3.056 3.476.646 0 1.471-.135 2.523-.413 2.462-.651 4.921-1.309 7.444-1.983l4.17-1.112 3.237 11.48s-9.24 2.395-11.68 3.024c-1.935.497-2.936 1.014-3.349 1.726-.404.695-.36 1.776.141 3.613l5.791 21.173c.751 2.748 1.458 3.303 4.197 3.303.158 0 .321-.001.49-.006.36-.009.72-.014 1.076-.014 19.955 0 36.795 13.873 40.042 32.985 1.811 10.654-.78 21.24-7.297 29.808-6.9 9.075-17.218 14.742-29.055 15.957a38.074 38.074 0 01-3.849.192c-7.858 0-16.12-2.332-21.56-6.087l-.678-.468zM77.63 60.967h1.948c1.065 0 2.13-.023 3.196-.047 1.077-.024 2.153-.047 3.226-.047 1.531 0 2.795.048 3.978.152 5.81.511 11.487 2.404 16.876 5.627 1.113.666 1.894.963 2.533.963.754 0 1.512-.431 2.616-1.486 2.268-2.166 4.53-4.336 6.793-6.506 3.43-3.288 6.858-6.576 10.301-9.851 1.51-1.436 1.867-2.436 1.321-3.689-.555-1.271-1.617-1.813-3.554-1.813l-.105.001c-1.814.017-3.626.022-5.44.022-1.459 0-11.183-.013-11.183-.013V32.421h45.585v43.985h-12.38l-.009-6.749c-.009-3.223-.018-6.446.007-9.669.012-1.554-.534-2.469-1.77-2.969a3.104 3.104 0 00-1.157-.241c-.792 0-1.579.373-2.34 1.109l-5.16 4.986c-4.179 4.035-8.359 8.07-12.52 12.121-1.438 1.399-1.523 2.494-.338 4.337 4.055 6.301 6.167 13.317 6.278 20.853.281 19.124-15.392 36.775-34.939 39.347-2.092.275-4.2.414-6.263.414-3.864 0-7.323-.505-9.74-1.421l-1.535-.582 1.36-.918c.293-.198.58-.379.856-.554.552-.348 1.028-.649 1.435-1.005a358.312 358.312 0 003.455-3.075 258.5 258.5 0 014.822-4.257c.748-.638 1.9-1.441 3.14-1.638 14.315-2.284 24.033-13.526 23.633-27.339-.323-11.114-9.04-21.517-20.278-24.201-1.718-.409-3.004-1.23-4.299-2.742-1.995-2.33-4.087-4.555-6.303-6.91a538.219 538.219 0 01-2.722-2.907zm-67.272 96.055c.168 0 .34-.005.514-.013l143.112-.005c.505 0 1.042-.006 1.546-.077 1.38-.197 2.403-1.325 2.433-2.684.031-1.389-1.053-2.616-2.469-2.792a12.123 12.123 0 00-1.47-.07l-138.934.001 9.507-14.673 1.91 1.055c7.426 4.106 15.236 6.188 23.215 6.188 4.353 0 8.85-.62 13.363-1.842.841-.228 1.614-.339 2.363-.339.98 0 1.955.193 2.984.591a47.249 47.249 0 0017.125 3.185h.003c14.044 0 27.476-6.263 35.931-16.754 12.17-15.098 13.968-31.642 5.345-49.173-.536-1.088-.838-2.272.567-3.562 1.654-1.517 3.291-3.11 4.875-4.653a423.3 423.3 0 012.548-2.467c.26-.249.545-.443.874-.666.163-.11.345-.234.552-.383l1.348-.971s-.002 9.222.001 11.385c.003 2.912.921 3.803 3.93 3.813 2.51.009 5.021.013 7.532.013 2.791 0 5.582-.005 8.373-.011 3.417-.008 4.3-.847 4.302-4.078.01-15.751.007-31.501-.005-47.251-.002-3.251-.848-4.046-4.306-4.05-6.978-.008-13.954-.008-20.93-.009l-18.72-.004c-3.21 0-6.42.002-9.63.009-2.914.006-3.899.93-3.9 3.666l-.004 2.993c-.005 4.438-.009 8.876.018 13.314.014 2.081 1.047 3.091 3.252 3.18.46.018.92.023 1.381.023l2.077-.012h9.1l-11.178 11.209-.625-.216a1.593 1.593 0 01-.26-.101c-7.37-3.742-14.979-5.639-22.613-5.639-4.687 0-9.497.714-14.297 2.122-.35.103-.742.157-1.135.157-.474 0-.92-.079-1.293-.229-5.853-2.367-11.76-3.572-18.063-3.687l-.637-.011-5.15-18.857 4.537-1.168c2.813-.722 5.55-1.424 8.278-2.158 1.445-.389 2.97-1.467 2.505-3.224a629.184 629.184 0 00-4.91-17.499c-.367-1.232-1.33-1.938-2.65-1.938-.3 0-.615.036-.934.108-1.02.232-2.057.515-3.059.787-.529.145-1.06.289-1.59.427l-8.455 2.192-.958-3.499c-.546-1.999-1.069-3.921-1.62-5.835C35.285.483 34.317 0 33.072 0c-.482 0-1.035.078-1.689.24-2.96.728-5.918 1.467-8.876 2.207-2.167.541-4.334 1.083-6.503 1.62-1.91.474-2.949 1.008-3.367 1.73-.404.699-.359 1.8.148 3.568a1108.42 1108.42 0 011.547 5.457l.95 3.363-4.342 1.145c-2.627.69-5.176 1.36-7.72 2.045-1.577.424-2.506.959-2.922 1.683-.394.686-.397 1.665-.012 3.081 1.347 4.947 2.703 9.891 4.07 14.833.712 2.583 1.62 3.088 2.946 3.088.546 0 1.197-.096 1.994-.296 2.525-.63 5.05-1.266 7.62-1.913l4.53-1.14 5.286 18.678-.547.336C12.561 68.126 4.922 79.875 3.481 94.648c-1.422 14.568 3.873 27.412 15.735 38.177l.527.478-.758 1.213c-.277.446-.533.856-.795 1.262l-2.507 3.882c-2.619 4.059-5.24 8.117-7.88 12.163-.916 1.402-1.313 2.453-.633 3.671.598 1.072 1.551 1.528 3.188 1.528z"/></svg>